<svg width="38" height="35" viewBox="0 0 38 35" fill="none" xmlns="http://www.w3.org/2000/svg">
<g clip-path="url(#clip0_3460_722583)">
<g clip-path="url(#clip1_3460_722583)">
<g clip-path="url(#clip2_3460_722583)">
<path d="M30.7491 15.7342C29.8611 8.0535 22.9149 2.54692 15.2342 3.4349C7.55355 4.32288 2.047 11.2692 2.93498 18.9498C3.82296 26.6305 10.7692 32.1371 18.4499 31.2491C26.1305 30.3612 31.6371 23.4149 30.7491 15.7342Z" fill="#A8E545" fill-opacity="0.15"/>
<path d="M32.8047 26.5411C33.5187 26.4586 34.1644 26.9706 34.2469 27.6846C34.3294 28.3986 33.8174 29.0443 33.1034 29.1268L9.83198 31.8153C9.11795 31.8978 8.47225 31.3858 8.38976 30.6718C8.30727 29.9578 8.81923 29.3121 9.53326 29.2296L32.8047 26.5411ZM29.2714 7.2976C29.9855 7.21511 30.6312 7.72708 30.7136 8.4411L31.4604 14.9054C31.5429 15.6194 31.031 16.2651 30.317 16.3476C29.6029 16.4301 28.9572 15.9181 28.8747 15.2041L28.4885 11.8608L21.2926 20.9368C20.8804 21.4567 20.1512 21.5772 19.5985 21.2415L19.4642 21.148L16.1574 18.5261L11.2485 24.7174C10.8019 25.2806 9.98332 25.3752 9.4201 24.9286C8.85688 24.482 8.76231 23.6634 9.20887 23.1002L14.9264 15.8891C15.3729 15.3259 16.1915 15.2313 16.7547 15.6779L20.0616 18.2998L26.4466 10.2442L23.1059 10.6301C22.4428 10.7067 21.8387 10.2708 21.6898 9.63639L21.6636 9.48662C21.5812 8.7726 22.0931 8.12689 22.8071 8.0444L29.2714 7.2976Z" fill="#ABE705"/>
</g>
</g>
</g>
<defs>
<clipPath id="clip0_3460_722583">
<rect width="33.51" height="30.008" fill="white" transform="translate(0.764648 4.35522) rotate(-6.59481)"/>
</clipPath>
<clipPath id="clip1_3460_722583">
<rect width="33" height="30.008" fill="white" transform="translate(0.764648 4.35522) rotate(-6.59481)"/>
</clipPath>
<clipPath id="clip2_3460_722583">
<rect width="33" height="30" fill="white" transform="translate(0.764648 4.35522) rotate(-6.59481)"/>
</clipPath>
</defs>
</svg>
