<svg width="30" height="35" viewBox="0 0 30 35" fill="none" xmlns="http://www.w3.org/2000/svg">
<g clip-path="url(#clip0_3460_722602)">
<path d="M29.5893 15.367C29.5992 7.63512 23.3394 1.35918 15.6076 1.34926C7.87578 1.33934 1.59987 7.5992 1.58995 15.331C1.58003 23.0629 7.83986 29.3388 15.5717 29.3487C23.3035 29.3587 29.5794 23.0988 29.5893 15.367Z" fill="#A8E545" fill-opacity="0.15"/>
<path d="M3.12081 20.5273L27.3113 16.046L26.9079 13.8689C26.657 12.5141 26.5315 11.8367 26.172 11.3681C25.8557 10.9559 25.4171 10.6544 24.919 10.5068C24.3527 10.339 23.6753 10.4645 22.3205 10.7154L5.87096 13.7627C4.51617 14.0137 3.83877 14.1392 3.37015 14.4987C2.95794 14.815 2.65643 15.2536 2.50883 15.7517C2.34103 16.318 2.46652 16.9954 2.7175 18.3502L4.42039 27.5426C4.67137 28.8974 4.79686 29.5748 5.15638 30.0434C5.47262 30.4556 5.91124 30.7571 6.40938 30.9047C6.97568 31.0725 7.65308 30.947 9.00787 30.696L16.0231 29.3965M20.7046 31.0313L23.0631 30.0877C23.2687 30.0054 23.3715 29.9643 23.4639 29.9068C23.5458 29.8558 23.6215 29.7952 23.6893 29.7265C23.7657 29.6491 23.8284 29.5578 23.9539 29.3753L28.0509 23.4152C28.5951 22.6235 28.3945 21.5404 27.6028 20.9962C26.811 20.4519 25.728 20.6526 25.1837 21.4443L21.0867 27.4044C20.9613 27.5869 20.8985 27.6782 20.8536 27.7772C20.8137 27.8652 20.7843 27.9575 20.766 28.0523C20.7454 28.1591 20.7438 28.2698 20.7407 28.4913L20.7046 31.0313Z" stroke="black" stroke-width="2.4602" stroke-linecap="round" stroke-linejoin="round"/>
<path d="M3.12081 20.5273L27.3113 16.046L26.9079 13.8689C26.657 12.5141 26.5315 11.8367 26.172 11.3681C25.8557 10.9559 25.4171 10.6544 24.919 10.5068C24.3527 10.339 23.6753 10.4645 22.3205 10.7154L5.87096 13.7627C4.51617 14.0137 3.83877 14.1392 3.37015 14.4987C2.95794 14.815 2.65643 15.2536 2.50883 15.7517C2.34103 16.318 2.46652 16.9954 2.7175 18.3502L4.42039 27.5426C4.67137 28.8974 4.79686 29.5748 5.15638 30.0434C5.47262 30.4556 5.91124 30.7571 6.40938 30.9047C6.97568 31.0725 7.65308 30.947 9.00787 30.696L16.0231 29.3965M20.7046 31.0313L23.0631 30.0877C23.2687 30.0054 23.3715 29.9643 23.4639 29.9068C23.5458 29.8558 23.6215 29.7952 23.6893 29.7265C23.7657 29.6491 23.8284 29.5578 23.9539 29.3753L28.0509 23.4152C28.5951 22.6235 28.3945 21.5404 27.6028 20.9962C26.811 20.4519 25.728 20.6526 25.1837 21.4443L21.0867 27.4044C20.9613 27.5869 20.8985 27.6782 20.8536 27.7772C20.8137 27.8652 20.7843 27.9575 20.766 28.0523C20.7454 28.1591 20.7438 28.2698 20.7407 28.4913L20.7046 31.0313Z" stroke="#ABE705" stroke-width="2.4602" stroke-linecap="round" stroke-linejoin="round"/>
</g>
<defs>
<clipPath id="clip0_3460_722602">
<rect width="29" height="34" fill="white" transform="translate(0.729004 0.35083) rotate(0.0735108)"/>
</clipPath>
</defs>
</svg>
