<svg width="60" height="60" viewBox="0 0 60 60" fill="none" xmlns="http://www.w3.org/2000/svg">
<g clip-path="url(#clip0_3460_722312)">
<g clip-path="url(#clip1_3460_722312)">
<mask id="mask0_3460_722312" style="mask-type:alpha" maskUnits="userSpaceOnUse" x="0" y="0" width="60" height="60">
<path d="M0 30C0 19.499 0 14.2485 2.04363 10.2377C3.84126 6.70963 6.70963 3.84126 10.2377 2.04363C14.2485 0 19.499 0 30 0C40.501 0 45.7515 0 49.7624 2.04363C53.2904 3.84126 56.1588 6.70963 57.9564 10.2377C60 14.2485 60 19.499 60 30C60 40.501 60 45.7515 57.9564 49.7624C56.1588 53.2904 53.2904 56.1588 49.7624 57.9564C45.7515 60 40.501 60 30 60C19.499 60 14.2485 60 10.2377 57.9564C6.70963 56.1588 3.84126 53.2904 2.04363 49.7624C0 45.7515 0 40.501 0 30Z" fill="#FF3333"/>
</mask>
<g mask="url(#mask0_3460_722312)">
<path d="M0 30C0 19.499 0 14.2485 2.04363 10.2377C3.84126 6.70963 6.70963 3.84126 10.2377 2.04363C14.2485 0 19.499 0 30 0C40.501 0 45.7515 0 49.7624 2.04363C53.2904 3.84126 56.1588 6.70963 57.9564 10.2377C60 14.2485 60 19.499 60 30C60 40.501 60 45.7515 57.9564 49.7624C56.1588 53.2904 53.2904 56.1588 49.7624 57.9564C45.7515 60 40.501 60 30 60C19.499 60 14.2485 60 10.2377 57.9564C6.70963 56.1588 3.84126 53.2904 2.04363 49.7624C0 45.7515 0 40.501 0 30Z" fill="#FED42B"/>
<path d="M50.1413 59.8166C51.5965 59.5133 52.4632 57.9906 51.7401 56.6919C50.146 53.8288 47.6347 51.3129 44.4221 49.3956C40.2846 46.9263 35.2152 45.5879 30 45.5879C24.7848 45.5879 19.7154 46.9263 15.5779 49.3956C12.3653 51.3129 9.85402 53.8288 8.25993 56.6919C7.53684 57.9906 8.40349 59.5133 9.85868 59.8166C23.1435 62.5852 36.8565 62.5852 50.1413 59.8166Z" fill="white"/>
<path d="M43.1616 27.1616C43.1616 34.4306 37.269 40.3232 30 40.3232C22.731 40.3232 16.8384 34.4306 16.8384 27.1616C16.8384 19.8927 22.731 14 30 14C37.269 14 43.1616 19.8927 43.1616 27.1616Z" fill="white"/>
<path d="M30 60C19.499 60 14.2485 60 10.2377 57.9564C6.70964 56.1587 3.84126 53.2904 2.04363 49.7623C0 45.7515 0 40.501 0 30C0 19.4989 0 14.2485 2.04363 10.2376C3.84126 6.70964 6.70964 3.84119 10.2377 2.04359C14.2485 -1.43051e-05 19.499 -1.43051e-05 30 -1.43051e-05C40.5011 -1.43051e-05 45.7515 -1.43051e-05 49.7624 2.04359C53.2904 3.84119 56.1588 6.70964 57.9564 10.2376C60 14.2485 60 19.4989 60 30C60 40.501 60 45.7515 57.9564 49.7623C56.1588 53.2904 53.2904 56.1587 49.7624 57.9564C45.7515 60 40.5011 60 30 60Z" fill="url(#paint0_linear_3460_722312)"/>
</g>
</g>
</g>
<defs>
<linearGradient id="paint0_linear_3460_722312" x1="2.54737" y1="10.8205" x2="57.962" y2="49.5351" gradientUnits="userSpaceOnUse">
<stop stop-color="white" stop-opacity="0.3381"/>
<stop offset="0.5355" stop-color="white" stop-opacity="0"/>
<stop offset="1" stop-color="white" stop-opacity="0"/>
</linearGradient>
<clipPath id="clip0_3460_722312">
<rect width="60" height="60" fill="white"/>
</clipPath>
<clipPath id="clip1_3460_722312">
<rect width="60" height="60" fill="white"/>
</clipPath>
</defs>
</svg>
