<svg width="17" height="15" viewBox="0 0 17 15" fill="none" xmlns="http://www.w3.org/2000/svg">
<path d="M4.98445 7.24002L5.56906 3.44008H11.4309L12.0155 7.24002H4.98445Z" fill="white"/>
<path d="M13.1303 6.98911L12.5465 3.19408L14.3895 2.2726L16.5726 5.47452L13.1303 6.98911Z" fill="white"/>
<path d="M3.69463 1.54011L5.2146 0.780119H11.7854L13.3054 1.54011L11.7854 2.3001H5.2146L3.69463 1.54011Z" fill="white"/>
<path d="M0.427409 5.47452L2.61053 2.2726L4.45351 3.19409L3.86966 6.98911L0.427409 5.47452Z" fill="white"/>
<path d="M5.82863 11.9184L1.725 7.29091L3.90778 8.25133L5.82863 11.9184Z" fill="white"/>
<path d="M8.5 14.5615L5.26208 8.38H11.7379L8.5 14.5615Z" fill="white"/>
<path d="M11.1714 11.9184L13.0922 8.25133L15.275 7.29091L11.1714 11.9184Z" fill="white"/>
</svg>
